<svg width="2100" height="2100" viewBox="0 0 2100 2100" fill="none" xmlns="http://www.w3.org/2000/svg">
<rect width="2100" height="2100" fill="black"/>
<path d="M221 1225.5C195 1225.5 173 1222.17 155 1215.5C137.333 1208.5 123 1197.83 112 1183.5C101.333 1169.17 93.5 1151 88.5 1129C83.8333 1107 81.5 1080.83 81.5 1050.5C81.5 1020.17 84 993.833 89 971.5C94 949.167 102 930.667 113 916C124 901 138.333 890 156 883C173.667 875.667 195.333 872 221 872C246.667 872 268.333 875.667 286 883C303.667 890 318 901 329 916C340 930.667 347.833 949.167 352.5 971.5C357.5 993.833 360 1020.17 360 1050.5C360 1090.83 355.667 1123.33 347 1148C338.667 1172.33 324.833 1191 305.5 1204L347.5 1271.5L296 1295.5L251.5 1222.5C245.167 1224.5 235 1225.5 221 1225.5ZM156 1147.5C167.667 1167.17 189.333 1177 221 1177C237 1177 250.167 1174.83 260.5 1170.5C271.167 1165.83 279.5 1158.5 285.5 1148.5C291.833 1138.5 296.167 1125.5 298.5 1109.5C301.167 1093.5 302.5 1074 302.5 1051C302.5 1028 301.167 1008.33 298.5 992C295.833 975.667 291.333 962.167 285 951.5C279 940.833 270.667 933 260 928C249.667 923 236.667 920.5 221 920.5C205.333 920.5 192.167 923 181.5 928C171.167 933 162.833 940.833 156.5 951.5C150.167 962.167 145.667 975.667 143 992C140.333 1008.33 139 1027.83 139 1050.5C139 1095.83 144.667 1128.17 156 1147.5ZM546.625 1220H636.625L695.125 945.5L754.125 1220H843.625L911.125 877.5H852.625L803.625 1172H792.625L727.625 878.5H662.625L597.625 1172H587.125L538.125 877.5H479.625L546.625 1220ZM1100.69 1220V877.5H1045.19V1220H1100.69ZM1453.97 1170.5H1317.47V877.5H1261.97V1220H1453.97V1170.5ZM1637.27 1220V877.5H1581.77V1220H1637.27ZM1765.55 877.5L1867.55 1054.5L1765.55 1220H1824.05L1899.05 1091L1972.55 1220H2034.55L1933.05 1051.5L2034.55 877.5H1976.05L1901.55 1012.5L1828.05 877.5H1765.55Z" fill="white"/>
</svg>
