<svg width="501" height="110" viewBox="0 0 501 110" fill="none" xmlns="http://www.w3.org/2000/svg">
<path d="M35.984 91.408C29.328 91.408 23.696 90.5547 19.088 88.848C14.5653 87.056 10.896 84.3253 8.08 80.656C5.34933 76.9867 3.344 72.336 2.064 66.704C0.869334 61.072 0.272 54.3733 0.272 46.608C0.272 38.8427 0.912 32.1013 2.192 26.384C3.472 20.6667 5.52 15.9307 8.336 12.176C11.152 8.33599 14.8213 5.51999 19.344 3.728C23.8667 1.85066 29.4133 0.911995 35.984 0.911995C42.5547 0.911995 48.1013 1.85066 52.624 3.728C57.1467 5.51999 60.816 8.33599 63.632 12.176C66.448 15.9307 68.4533 20.6667 69.648 26.384C70.928 32.1013 71.568 38.8427 71.568 46.608C71.568 56.9333 70.4587 65.2533 68.24 71.568C66.1067 77.7973 62.5653 82.576 57.616 85.904L68.368 103.184L55.184 109.328L43.792 90.64C42.1707 91.152 39.568 91.408 35.984 91.408ZM19.344 71.44C22.3307 76.4747 27.8773 78.992 35.984 78.992C40.08 78.992 43.4507 78.4373 46.096 77.328C48.8267 76.1333 50.96 74.256 52.496 71.696C54.1173 69.136 55.2267 65.808 55.824 61.712C56.5067 57.616 56.848 52.624 56.848 46.736C56.848 40.848 56.5067 35.8133 55.824 31.632C55.1413 27.4507 53.9893 23.9947 52.368 21.264C50.832 18.5333 48.6987 16.528 45.968 15.248C43.3227 13.968 39.9947 13.328 35.984 13.328C31.9733 13.328 28.6027 13.968 25.872 15.248C23.2267 16.528 21.0933 18.5333 19.472 21.264C17.8507 23.9947 16.6987 27.4507 16.016 31.632C15.3333 35.8133 14.992 40.8053 14.992 46.608C14.992 58.2133 16.4427 66.4907 19.344 71.44ZM119.344 90H142.384L157.36 19.728L172.464 90H195.376L212.656 2.31999H197.68L185.136 77.712H182.32L165.68 2.576H149.04L132.4 77.712H129.712L117.168 2.31999H102.192L119.344 90ZM261.185 90V2.31999H246.977V90H261.185ZM351.624 77.328H316.68V2.31999H302.472V90H351.624V77.328ZM398.55 90V2.31999H384.342V90H398.55ZM431.389 2.31999L457.501 47.632L431.389 90H446.365L465.565 56.976L484.381 90H500.253L474.269 46.864L500.253 2.31999H485.277L466.205 36.88L447.389 2.31999H431.389Z" fill="white"/>
</svg>
